<?xml version="1.0"?>
<svg width="500" height="500" xmlns="http://www.w3.org/2000/svg" xmlns:svg="http://www.w3.org/2000/svg">
  <!-- Blue triangle part -->
  <!-- Light blue triangle part -->
  <!-- Dark gray triangle part -->
  <!-- Dark blue triangle part -->
  <!-- Red part -->
  <!-- Orange part -->
  <!-- Yellow part with shadow -->
  <!-- Red part with shadow -->
  <!-- Dark blue triangle part (corrected) -->
  <!-- Green part needs changement as it is small we need to increase it similarly -->
  <g class="layer">
    <title>Layer 1</title>
    <path d="M249.04,85.48L249.04,249.31L128.5,167.4L249.04,85.48Z" fill="#3aa9e2" id="svg_1"/>
    <path d="M249.04,249.31L249.04,85.48L369.44,167.34L249.04,249.31Z" fill="#2d99d4" id="svg_2"/>
    <path d="M369.44,167.34L489.89,249.31L369.44,331.27L249.04,249.31L369.44,167.34Z" fill="#535b77" id="svg_3"/>
    <path d="M128.5,167.4L8.04,249.31L128.5,331.21L128.5,167.4Z" fill="#5f69a2" id="svg_4"/>
    <path d="M249.04,249.31L249.04,412.58L369.44,331.27L249.04,249.31Z" fill="#de4632" id="svg_5"/>
    <path d="M249.04,249.31L249.04,412.58L128.5,331.27L249.04,249.31Z" fill="#ed6e2f" id="svg_6"/>
    <path d="M489.89,249.31L489.89,406.21c0,13.64 -2.6,25.7 -7.83,36.16c-9.48,19.01 -27.26,34.77 -48.16,42.44c-17.47,6.44 -36.31,6.92 -56.52,1.43c-6.48,-1.75 -18.77,-8.39 -36.86,-19.9c-30.45,-19.37 -91.48,-53.76 -91.48,-53.76L489.89,249.31z" fill="#f09d30" id="svg_7"/>
    <path d="M8.04,391.46c0,-47.71 0,-142.15 0,-142.15l241,163.27c0,0 -96.02,56.18 -114.46,66.99c-12.7,7.47 -27.51,10.95 -44.41,10.45c-13.72,-0.41 -27.77,-4.72 -42.15,-12.94c-18.79,-10.7 -31.19,-27.09 -37.2,-49.06c-3.13,-11.37 -2.73,-24.37 -2.78,-36.56z" fill="#de4632" id="svg_8"/>
    <path d="M489.5,106.59c0.21,47.99 0.39,142.72 0.39,142.72l-240.85,-163.83c0,0 96.62,-56.26 114.86,-67.2c12.57,-7.53 27.23,-11.08 43.98,-10.63c13.6,0.37 27.53,4.67 41.81,12.89c18.65,10.72 30.97,27.14 36.99,49.24c3.14,11.43 2.78,24.52 2.82,36.81z" fill="#5f69a2" id="svg_9"/>
    <path d="M8.45,198L8.45,92.01c0,-13.7 2.6,-25.81 7.82,-36.32c9.48,-19.11 27.26,-34.93 48.16,-42.65c17.48,-6.48 36.32,-6.97 56.53,-1.46c6.48,1.76 18.77,8.42 36.86,19.98c30.45,19.45 91.48,53.98 91.48,53.98L8.45,198z" fill="#269a74" id="svg_10"/>
  </g>
</svg>
