<?xml version="1.0" encoding="utf-8"?>
<svg viewBox="0 0 100 100" width="500" height="500" xmlns="http://www.w3.org/2000/svg">
  <title>Antinna Icon</title>
  <path d="M50 17.1L50 50L29.33 33.48L50 17.1Z" fill="#3aa9e2"/>
  <path d="M50 50L50 17.1L77.52 33.48L50 50Z" fill="#2d99d4"/>
  <path d="M101.61 50L101.61 50L77.52 66.25L77.52 33.48L101.61 50Z" fill="#535b77"/>
  <path d="M29.33 33.48L5.24 50L29.33 66.24L29.33 33.48Z" fill="#5f69a2"/>
  <path d="M50 50L50 82.52L77.52 66.25L50 50Z" fill="#de4632"/>
  <path d="M50 50L50 82.52L29.33 66.25L50 50Z" fill="#ed6e2f"/>
  <path d="M101.61 50L101.61 81.24C101.61 84.87 101.09 87.82 99.95 90.02C97.38 94.27 94.59 97.45 90.41 98.96C86.92 100.49 83.15 100.6 79.1 99.25C77.81 98.9 75.35 97.13 71.73 94.65C65.64 90.06 50 82.52 50 82.52L101.61 50Z" fill="#f09d30"/>
  <path d="M5.24 78.29C5.24 68.75 5.24 50 5.24 50L50 82.52C50 82.52 34.23 93.75 30.55 95.91C28.01 97.41 25.04 98.1 21.66 97.92C18.92 97.82 16.11 96.91 13.23 95.42C9.48 93.27 6.99 90 5.79 85.6C5.17 83.33 5.21 80.73 5.24 78.29L5.24 78.29Z" fill="#de4632"/>
  <path d="M101.53 21.32C101.57 30.92 101.61 50 101.61 50L50 17.1C50 17.1 72.76 5.84 76.41 3.66C79.14 2.15 82.2 1.43 85.64 1.53C88.43 1.6 91.36 2.46 94.4 4.11C98.12 6.26 100.64 9.54 101.73 13.96C102.38 16.27 102.3 18.86 101.53 21.32L101.53 21.32Z" fill="#5f69a2"/>
  <path d="M5.24 50L6.08 18.4C6.08 15.66 6.6 13.24 7.69 11.14C9.88 7.31 13.34 4.15 17.78 2.61C21.24 1.31 25.17 1.21 29.63 2.32C31.12 2.7 33.95 4.01 37.52 6.31C44.53 10.2 50 17.1 50 17.1L5.24 50Z" fill="#269a74"/>
  <path fill="#51DDA0" d="M50 17.1L29.33 33.48L77.52 33.48L50 50Z"/>
</svg>
